# xmcd
#
# Track frame offsets:
# 150
# 11882
# 24567
# 37815
# 49877
# 60555
# 71610
# 83427
# 94430
# 105637
# 124905
# 137895
# 149827
# 162892
# 174777
# 188502
#
# Disc length: 2713 seconds
#
#
# Revision: 3
# Processed by: cddbd v1.5.1PL2 Copyright (c) Steve Scherf et al.
# Submitted via: FreeRIP 2.945 
#
DISCID=d80a9710
DTITLE=Tammy Wynette - 16 Biggest Hits
DYEAR=1998
DGENRE=Country
TTITLE0=I Don't Wanna Play House
TTITLE1=Take Me To Your World
TTITLE2=D-I-V-O-R-C-E
TTITLE3=Stand By Your Man
TTITLE4=Singing My Song
TTITLE5=The Ways To Love A Man
TTITLE6=He Loves Me All The Way
TTITLE7=Run, Woman, Run
TTITLE8=Good Lovin'
TTITLE9=Bedtime Story
TTITLE10=My Man (Understands)
TTITLE11='Til I Get It Right
TTITLE12=Kids Say The Darndest Things
TTITLE13=Another Lonely Song
TTITLE14='Til I Can Make It On My Own
TTITLE15=You and Me
EXTD=Epic Legacy
EXTT0=
EXTT1=
EXTT2=
EXTT3=
EXTT4=
EXTT5=
EXTT6=
EXTT7=
EXTT8=
EXTT9=
EXTT10=
EXTT11=
EXTT12=
EXTT13=
EXTT14=
EXTT15=
PLAYORDER=
